<?xml version="1.0" encoding="utf-8"?>
<svg width="83" height="83" viewBox="0 0 83 83" fill="none" xmlns="http://www.w3.org/2000/svg">
<path d="M64.9932 30.0947L48.4302 28.3936L51.8268 25.0257L39.7215 13.0226L41.6713 11.0893L55.7264 25.0257L54.4656 26.269L61.8997 27.0342L61.128 19.6629L59.8672 20.9131L47.5965 8.73922H37.0552L26.7274 18.9797L30.8751 23.0923L37.9164 16.1105L39.8662 18.037L30.8751 26.9522L22.8278 18.9797L35.9115 6.00659H48.7333L59.8672 17.0464L63.2707 13.6784L64.9932 30.0947Z" fill="#D8B370"/>
<path d="M29.7659 72.1635L11.8938 67.4155L5.47945 56.4031L9.55819 41.3258L4.91449 40.0893L18.3909 30.4021L25.1842 45.4794L20.5474 44.2429L16.1104 60.6386L13.4509 59.935L18.5976 40.8954L20.3131 41.3531L17.2609 34.5899L11.2186 38.9347L12.9342 39.3924L8.43516 56.0205L13.7058 65.0723L27.8161 68.816L29.3318 63.2005L19.7137 60.6455L20.4302 58.0085L32.7078 61.2671L29.7659 72.1635Z" fill="#D8B370"/>
<path d="M57.1595 76.9934L41.9538 70.2643L51.7304 56.8881L52.9705 61.4926L69.506 57.0999L70.2225 59.7437L51.0207 64.8401L50.566 63.139L46.1841 69.144L52.9981 72.1567L52.5434 70.4556L69.313 66.0014L74.5837 56.9496L70.8012 42.9654L65.1379 44.4683L67.7146 54.0052L65.0552 54.7157L61.7619 42.535L72.751 39.6179L77.5394 57.339L71.1251 68.3515L55.9193 72.389L57.1595 76.9934Z" fill="#D8B370"/>
<path d="M64.9932 30.0947L48.4302 28.3936L51.8268 25.0257L39.7215 13.0226L41.6713 11.0893L55.7264 25.0257L54.4656 26.269L61.8997 27.0342L61.128 19.6629L59.8672 20.9131L47.5965 8.73922H37.0552L26.7274 18.9797L30.8751 23.0923L37.9164 16.1105L39.8662 18.037L30.8751 26.9522L22.8278 18.9797L35.9115 6.00659H48.7333L59.8672 17.0464L63.2707 13.6784L64.9932 30.0947Z" fill="#D8B370"/>
</svg>
